# xmcd
#
# Track frame offsets: 
#        150
#        17117
#        33510
#        50645
#        67499
#        84891
#        103634
#        120213
#        135305
#        153054
#        170397
#        186536
#
# Disc length: 2702 seconds
#
# Revision: 1
# Processed by: cddbd v1.5.2PL0 Copyright (c) Steve Scherf et al.
# Submitted via: ExactAudioCopy v0.95b4
#
DISCID=980a8c0c
DTITLE=เกษม มนต์สิทธิ์ ดำรง - โอเค ลูกทุ่ง
DYEAR=2006
DGENRE=Country
TTITLE0=คนชื่อเดือน
TTITLE1=บอกรักฝากใจ
TTITLE2=ห้องนอนคนจน
TTITLE3=สัญญาน้ำอ้อย
TTITLE4=ปูไข่ไก่หลง
TTITLE5=เหนือคำสาบาน
TTITLE6=ผู้เสียสละ
TTITLE7=กลิ่นฟางนางลืม
TTITLE8=หนาวลมที่เรณู
TTITLE9=อีสานแอ่วเหนือ
TTITLE10=ฝากใจไว้ที่เดือน
TTITLE11=ลารักจากสวนแตง
EXTD=
EXTT0=
EXTT1=
EXTT2=
EXTT3=
EXTT4=
EXTT5=
EXTT6=
EXTT7=
EXTT8=
EXTT9=
EXTT10=
EXTT11=
PLAYORDER=
